<svg xmlns="http://www.w3.org/2000/svg" x="0px" y="0px"
	 enable-background="new 0 0 30 30" height="30px" id="Layer_1" version="1.1" viewBox="0 0 30 30" width="30px" xml:space="preserve">
<g>
	<polygon fill-rule="evenodd" clip-rule="evenodd" fill="#FFFFFF" points="209,300 401.756,300 401.756,492.756 209,492.756 
		209,300 	"/>
	<polygon fill-rule="evenodd" clip-rule="evenodd" fill="#A7A9AC" points="352.027,330.229 263.151,330.229 263.151,473.58 
		377.249,473.58 377.249,354.977 352.027,330.229 	"/>
	<path fill-rule="evenodd" clip-rule="evenodd" fill="#ED1C24" d="M346.259,324.696c0,8.388,0,16.876,0,18.578
		c1.719,0,10.355,0,18.822,0L346.259,324.696L346.259,324.696z"/>
	<path fill-rule="evenodd" clip-rule="evenodd" fill="#F1F2F2" d="M342.358,323.077c-31.897,0-81.85,0-84.407,0
		c0,3.746,0,137.982,0,141.726c3.702,0,106.817,0,110.52,0c0-2.787,0-77.876,0-117.628h-26.113V323.077L342.358,323.077z"/>
	<path fill-rule="evenodd" clip-rule="evenodd" d="M254.05,319.176v149.527h118.323V344.991l-26.156-25.815H254.05L254.05,319.176
		L254.05,319.176z M368.472,464.803c-3.703,0-106.818,0-110.52,0c0-3.744,0-137.98,0-141.726c2.557,0,52.509,0,84.407,0v24.098
		h26.113C368.472,386.927,368.472,462.016,368.472,464.803L368.472,464.803L368.472,464.803z M346.259,324.696l18.822,18.578
		c-8.467,0-17.104,0-18.822,0C346.259,341.572,346.259,333.083,346.259,324.696L346.259,324.696z"/>
	<path fill-rule="evenodd" clip-rule="evenodd" fill="#A7A9AC" d="M335.911,378.569v-43.465h-77.959c0,10.356,0,26.276,0,43.465
		H335.911L335.911,378.569z"/>
	<path fill-rule="evenodd" clip-rule="evenodd" fill="#ED1C24" d="M223.384,369.717c3.692,0,100.329,0,104.021,0
		c0-3.343,0-32.412,0-35.756c-3.692,0-100.329,0-104.021,0C223.384,337.305,223.384,366.374,223.384,369.717L223.384,369.717z"/>
	<path fill-rule="evenodd" clip-rule="evenodd" d="M219.484,330.061v43.557h111.821v-43.557h-1.949H219.484L219.484,330.061
		L219.484,330.061z M327.405,369.717c-3.692,0-100.329,0-104.021,0c0-3.343,0-32.412,0-35.756c3.692,0,100.329,0,104.021,0
		C327.405,337.305,327.405,366.374,327.405,369.717L327.405,369.717z"/>
	<path fill-rule="evenodd" clip-rule="evenodd" fill="#FFFFFF" d="M244.228,363.725v-23.771h7.708c2.92,0,4.825,0.12,5.712,0.357
		c1.363,0.357,2.504,1.133,3.423,2.328c0.92,1.195,1.38,2.739,1.38,4.631c0,1.461-0.265,2.688-0.795,3.683
		c-0.528,0.995-1.202,1.777-2.018,2.345c-0.816,0.568-1.645,0.944-2.488,1.126c-1.147,0.229-2.805,0.341-4.978,0.341h-3.129v8.959
		H244.228L244.228,363.725L244.228,363.725z M249.043,343.977v6.766h2.629c1.894,0,3.159-0.125,3.797-0.375
		c0.638-0.249,1.139-0.64,1.501-1.17c0.363-0.531,0.544-1.15,0.544-1.854c0-0.866-0.255-1.583-0.763-2.146
		c-0.508-0.563-1.152-0.916-1.932-1.056c-0.573-0.109-1.725-0.164-3.457-0.164H249.043L249.043,343.977z"/>
	<path fill-rule="evenodd" clip-rule="evenodd" fill="#FFFFFF" d="M266.343,339.954h8.746c1.973,0,3.477,0.151,4.512,0.455
		c1.39,0.412,2.581,1.141,3.572,2.189c0.992,1.049,1.747,2.333,2.264,3.85c0.517,1.52,0.776,3.392,0.776,5.618
		c0,1.957-0.243,3.644-0.728,5.059c-0.593,1.73-1.438,3.13-2.538,4.2c-0.83,0.811-1.951,1.443-3.362,1.897
		c-1.057,0.335-2.469,0.503-4.236,0.503h-9.006V339.954L266.343,339.954L266.343,339.954z M271.158,343.977v15.725h3.566
		c1.333,0,2.296-0.076,2.889-0.227c0.774-0.194,1.417-0.522,1.927-0.987s0.927-1.229,1.25-2.293
		c0.323-1.062,0.485-2.512,0.485-4.347c0-1.834-0.162-3.243-0.485-4.226c-0.323-0.983-0.774-1.75-1.355-2.299
		c-0.581-0.551-1.318-0.924-2.21-1.119c-0.668-0.15-1.975-0.227-3.921-0.227H271.158L271.158,343.977z"/>
	<polygon fill-rule="evenodd" clip-rule="evenodd" fill="#FFFFFF" points="290.288,363.725 290.288,339.954 306.562,339.954 
		306.562,343.977 295.103,343.977 295.103,349.584 304.977,349.584 304.977,353.607 295.103,353.607 295.103,363.725 
		290.288,363.725 	"/>
	
		<path fill-rule="evenodd" clip-rule="evenodd" fill="#ED1C2E" stroke="#ED1C2E" stroke-width="0.5197" stroke-miterlimit="2.6131" d="
		M297.025,425.172c-8.39,6.264-14.161,15.164-11.885,16.555l-1.988-1.002C282,439.316,284.617,431.771,297.025,425.172
		L297.025,425.172L297.025,425.172L297.025,425.172z"/>
	<path fill-rule="evenodd" clip-rule="evenodd" fill="#ED1C2E" d="M358.56,421.66v0.232h-0.557v1.588h-0.272v-1.588h-0.554v-0.232
		H358.56L358.56,421.66L358.56,421.66L358.56,421.66L358.56,421.66L358.56,421.66z M360.319,423.48l-0.07-1.098
		c-0.01-0.141,0-0.314-0.006-0.494h-0.013c-0.046,0.17-0.1,0.363-0.155,0.521l-0.379,1.047h-0.212l-0.371-1.074
		c-0.045-0.146-0.089-0.324-0.131-0.494h-0.014c-0.004,0.174,0,0.33-0.01,0.494l-0.068,1.098h-0.265l0.141-1.82h0.361l0.356,0.988
		c0.046,0.137,0.082,0.289,0.128,0.457h0.008c0.042-0.168,0.084-0.328,0.13-0.463l0.355-0.982h0.358l0.137,1.82H360.319
		L360.319,423.48L360.319,423.48L360.319,423.48z"/>
	<path fill-rule="evenodd" clip-rule="evenodd" fill="#ED1C2E" d="M360.047,418.148c2.451-5.219-8.01-7.01-22.241-5.359
		c-2.499-1.408-4.929-3.006-7.127-4.754c-5.479-4.498-9.51-12.037-12.017-19.595c1.142-6.329,1.069-11.71,1.194-17.524
		c-0.54,2.651-0.93,7.078-2.419,13.377c-1.916-7.359-2.336-14.198-1.172-17.619c0.254-0.75,0.873-1.628,1.146-1.822
		c1.07,0.533,2.363,1.847,2.652,4.597c0.966-5.079-1.519-4.9-2.214-4.9l-1.564-0.012c-0.865,0-1.643,0.693-2.018,2.103
		c-1.285,4.791-0.671,13.443,1.995,22.14c-1.658,5.795-4.224,12.837-8.372,21.19c-11.166,22.482-19.315,32.965-24.739,30.754
		l1.938,0.994c3.611,1.844,9.805-3.041,19.549-19.895c9.16-3.305,21.35-5.732,31.972-6.797c10.459,5.605,22.473,7.529,23.08,3.92
		c-2.708,1.301-10.486-0.508-18.352-4.313C352.109,413.949,360.249,414.918,360.047,418.148L360.047,418.148L360.047,418.148z
		 M304.733,421.66c1.696-2.939,3.497-6.232,5.414-9.922c3.88-7.477,6.17-13.541,7.538-18.848c2.49,6.461,6.146,12.607,11.048,16.826
		c1.526,1.313,3.21,2.521,4.977,3.627C324.445,414.775,314.049,417.547,304.733,421.66L304.733,421.66z"/>
	<path fill="none" stroke="#ED1C2E" stroke-width="0.5197" stroke-miterlimit="2.6131" d="M360.047,418.148
		c2.451-5.219-8.01-7.01-22.241-5.359c-2.499-1.408-4.929-3.006-7.127-4.754c-5.479-4.498-9.51-12.037-12.017-19.595
		c1.142-6.329,1.069-11.71,1.194-17.524c-0.54,2.651-0.93,7.078-2.419,13.377c-1.916-7.359-2.336-14.198-1.172-17.619
		c0.254-0.75,0.873-1.628,1.146-1.822c1.07,0.533,2.363,1.847,2.652,4.597c0.966-5.079-1.519-4.9-2.214-4.9l-1.564-0.012
		c-0.865,0-1.643,0.693-2.018,2.103c-1.285,4.791-0.671,13.443,1.995,22.14c-1.658,5.795-4.224,12.837-8.372,21.19
		c-11.166,22.482-19.315,32.965-24.739,30.754l1.938,0.994c3.611,1.844,9.805-3.041,19.549-19.895
		c9.16-3.305,21.35-5.732,31.972-6.797c10.459,5.605,22.473,7.529,23.08,3.92c-2.708,1.301-10.486-0.508-18.352-4.313
		C352.109,413.949,360.249,414.918,360.047,418.148 M304.733,421.66c1.696-2.939,3.497-6.232,5.414-9.922
		c3.88-7.477,6.17-13.541,7.538-18.848c2.49,6.461,6.146,12.607,11.048,16.826c1.526,1.313,3.21,2.521,4.977,3.627
		C324.445,414.775,314.049,417.547,304.733,421.66L304.733,421.66z"/>
	<path fill-rule="evenodd" clip-rule="evenodd" d="M270.914,449.438l-2.015,9.457h-4.676l7.705-34.252h5.542l7.288,34.252h-4.73
		l-1.991-9.457H270.914L270.914,449.438L270.914,449.438L270.914,449.438L270.914,449.438L270.914,449.438z M277.481,445.625
		l-1.575-8.195c-0.443-2.313-0.903-5.342-1.288-7.801h-0.156c-0.385,2.488-0.889,5.617-1.332,7.83l-1.617,8.166H277.481
		L277.481,445.625L277.481,445.625L277.481,445.625z"/>
	<path fill-rule="evenodd" clip-rule="evenodd" d="M303.065,423.73v28.795c0,1.881,0.129,4.654,0.202,6.369h-4.139l-0.297-2.994
		h-0.157c-0.829,1.75-2.667,3.4-5.156,3.4c-4.539,0-7.35-4.955-7.35-12.664c0-8.695,3.697-12.822,7.605-12.822
		c1.951,0,3.53,0.918,4.392,2.773h0.102V423.73H303.065L303.065,423.73L303.065,423.73L303.065,423.73L303.065,423.73
		L303.065,423.73z M298.268,443.629c0-0.488,0-1.049-0.075-1.563c-0.227-2.213-1.503-4.154-3.221-4.154
		c-2.939,0-3.973,4.152-3.973,8.762c0,5.043,1.322,8.623,3.809,8.623c1.093,0,2.522-0.574,3.288-3.504
		c0.124-0.438,0.172-1,0.172-1.609V443.629L298.268,443.629L298.268,443.629L298.268,443.629z"/>
	<path fill-rule="evenodd" clip-rule="evenodd" d="M314.475,459.301c-4.917,0-8.501-4.244-8.501-12.697
		c0-8.947,4.243-12.789,8.715-12.789c4.869,0,8.399,4.385,8.399,12.697c0,9.793-4.854,12.789-8.564,12.789H314.475L314.475,459.301
		L314.475,459.301L314.475,459.301L314.475,459.301L314.475,459.301z M314.604,455.533c2.96,0,3.604-5.225,3.604-9
		c0-3.656-0.644-8.951-3.708-8.951c-3.124,0-3.745,5.295-3.745,8.951c0,4.129,0.715,9,3.796,9H314.604L314.604,455.533
		L314.604,455.533L314.604,455.533z"/>
	<path fill-rule="evenodd" clip-rule="evenodd" d="M325.979,423.73h4.797v13.26h0.102c1.252-2.234,2.997-3.176,5.185-3.176
		c4.171,0,6.836,4.744,6.836,12.342c0,8.83-3.598,13.145-7.674,13.145c-2.431,0-3.789-1.293-4.878-3.527h-0.156l-0.3,3.121h-4.115
		c0.074-1.668,0.204-4.488,0.204-6.369V423.73L325.979,423.73L325.979,423.73L325.979,423.73L325.979,423.73L325.979,423.73z
		 M330.775,450.145c0,0.58,0.071,1.133,0.197,1.547c0.786,3.012,2.217,3.605,3.203,3.605c2.838,0,3.894-3.77,3.894-8.834
		c0-4.723-1.106-8.551-3.949-8.551c-1.556,0-2.851,1.867-3.177,3.688c-0.097,0.494-0.168,1.123-0.168,1.637V450.145L330.775,450.145
		L330.775,450.145L330.775,450.145z"/>
	<path fill-rule="evenodd" clip-rule="evenodd" d="M349.511,447.549c0.048,6.324,2.771,7.859,5.63,7.859
		c1.764,0,3.247-0.408,4.295-0.896l0.72,3.492c-1.476,0.74-3.748,1.17-5.889,1.17c-6.187,0-9.465-4.699-9.465-12.301
		c0-8.102,3.717-13.084,8.843-13.084c5.136,0,7.519,4.934,7.519,11.137c0,1.236-0.048,1.996-0.12,2.645L349.511,447.549
		L349.511,447.549L349.511,447.549L349.511,447.549L349.511,447.549L349.511,447.549z M356.634,444.074
		c0.055-4.346-1.472-6.633-3.368-6.633c-2.445,0-3.592,3.545-3.729,6.633H356.634L356.634,444.074L356.634,444.074L356.634,444.074z
		"/>
	<path fill-rule="evenodd" clip-rule="evenodd" fill="#A7A9AC" d="M368.472,351.739c0-1.564,0-3.092,0-4.564h-22.647v4.564H368.472
		L368.472,351.739z"/>
</g>
</svg>
